<svg width="512" height="512" viewBox="0 0 512 512" fill="none" xmlns="http://www.w3.org/2000/svg">
  <rect width="512" height="512" rx="112" fill="#03111F"/>
  <circle cx="130" cy="110" r="42" fill="#0EA5E9" opacity="0.25"/>
  <circle cx="380" cy="395" r="62" fill="#22D3EE" opacity="0.18"/>
  <path d="M120 262C178 174 313 169 396 254C314 348 181 351 120 262Z" fill="#67E8F9"/>
  <path d="M396 254L455 207V301L396 254Z" fill="#0891B2"/>
  <path d="M176 255C211 218 289 217 330 255C287 297 211 298 176 255Z" fill="#03111F" opacity="0.18"/>
  <circle cx="183" cy="242" r="18" fill="#03111F"/>
  <circle cx="189" cy="236" r="6" fill="#E0F2FE"/>
  <path d="M214 294C253 316 309 306 344 274" stroke="#03111F" stroke-width="16" stroke-linecap="round" opacity="0.35"/>
  <text x="256" y="442" text-anchor="middle" font-family="Arial, Helvetica, sans-serif" font-size="54" font-weight="800" fill="#E0F2FE">FishScript</text>
</svg>
